<svg width="16" height="16" viewBox="0 0 16 16" fill="none" xmlns="http://www.w3.org/2000/svg">
<path d="M13.5 1H2.5C2.10218 1 1.72064 1.15804 1.43934 1.43934C1.15804 1.72064 1 2.10218 1 2.5L1 13.5C1 13.8978 1.15804 14.2794 1.43934 14.5607C1.72064 14.842 2.10218 15 2.5 15H6.78906V10.2403H4.82031V8H6.78906V6.2925C6.78906 4.35031 7.94531 3.2775 9.71625 3.2775C10.5644 3.2775 11.4513 3.42875 11.4513 3.42875V5.335H10.4741C9.51125 5.335 9.21094 5.9325 9.21094 6.54531V8H11.3603L11.0166 10.2403H9.21094V15H13.5C13.8978 15 14.2794 14.842 14.5607 14.5607C14.842 14.2794 15 13.8978 15 13.5V2.5C15 2.10218 14.842 1.72064 14.5607 1.43934C14.2794 1.15804 13.8978 1 13.5 1Z" fill="#F5880B"/>
</svg>
