<svg width="48" height="48" viewBox="0 0 48 48" fill="none" xmlns="http://www.w3.org/2000/svg">
<g clip-path="url(#clip0_31_2)" filter="url(#filter0_d_31_2)">
<path d="M24 0.625C13.2969 0.625 4.625 9.29688 4.625 20C4.625 30.7031 13.2969 39.375 24 39.375C34.7031 39.375 43.375 30.7031 43.375 20C43.375 9.29688 34.7031 0.625 24 0.625ZM33.0391 21.875L19.2891 29.7656C18.0547 30.4531 16.5 29.5703 16.5 28.125V11.875C16.5 10.4375 18.0469 9.54688 19.2891 10.2344L33.0391 18.5938C34.3203 19.3125 34.3203 21.1641 33.0391 21.875Z" fill="white" fill-opacity="0.8"/>
</g>
<defs>
<filter id="filter0_d_31_2" x="0" y="0" width="48" height="48" filterUnits="userSpaceOnUse" color-interpolation-filters="sRGB">
<feFlood flood-opacity="0" result="BackgroundImageFix"/>
<feColorMatrix in="SourceAlpha" type="matrix" values="0 0 0 0 0 0 0 0 0 0 0 0 0 0 0 0 0 0 127 0" result="hardAlpha"/>
<feOffset dy="4"/>
<feGaussianBlur stdDeviation="2"/>
<feComposite in2="hardAlpha" operator="out"/>
<feColorMatrix type="matrix" values="0 0 0 0 0 0 0 0 0 0 0 0 0 0 0 0 0 0 0.25 0"/>
<feBlend mode="normal" in2="BackgroundImageFix" result="effect1_dropShadow_31_2"/>
<feBlend mode="normal" in="SourceGraphic" in2="effect1_dropShadow_31_2" result="shape"/>
</filter>
<clipPath id="clip0_31_2">
<rect width="40" height="40" fill="white" transform="translate(4)"/>
</clipPath>
</defs>
</svg>
