<svg width="16" height="16" viewBox="0 0 16 16" fill="none" xmlns="http://www.w3.org/2000/svg">
<path d="M15.1389 4.15844C15.2417 3.81122 15.1389 3.55566 14.6444 3.55566H13.0083C12.5917 3.55566 12.4 3.77511 12.2972 4.01955C12.2972 4.01955 11.4639 6.05011 10.2861 7.36677C9.90555 7.74733 9.73055 7.86955 9.52222 7.86955C9.41944 7.86955 9.26111 7.74733 9.26111 7.40011V4.15844C9.26111 3.74178 9.14444 3.55566 8.79999 3.55566H6.22777C5.96666 3.55566 5.81111 3.75011 5.81111 3.93066C5.81111 4.32511 6.4 4.41678 6.46111 5.52789V7.939C6.46111 8.46677 6.36666 8.564 6.15833 8.564C5.60277 8.564 4.25277 6.52511 3.45277 4.19178C3.29166 3.739 3.13333 3.55566 2.71388 3.55566H1.07777C0.611107 3.55566 0.516663 3.77511 0.516663 4.01955C0.516663 4.45289 1.07222 6.60566 3.10277 9.45011C4.45555 11.3918 6.36111 12.4446 8.09444 12.4446C9.13611 12.4446 9.26388 12.2112 9.26388 11.8084C9.26388 9.95289 9.16944 9.77789 9.69166 9.77789C9.93333 9.77789 10.35 9.90011 11.3222 10.8362C12.4333 11.9473 12.6167 12.4446 13.2389 12.4446H14.875C15.3417 12.4446 15.5778 12.2112 15.4417 11.7501C15.1306 10.7807 13.0278 8.78622 12.9333 8.65289C12.6917 8.34177 12.7611 8.20289 12.9333 7.92511C12.9361 7.92233 14.9333 5.11122 15.1389 4.15844Z" fill="#F5880B"/>
</svg>
